<?xml version="1.0" encoding="UTF-8" standalone="no"?>
<svg
   width="500"
   height="500"
   viewBox="0 0 500 500"
   fill="none"
   version="1.1"
   id="svg8"
   sodipodi:docname="fedora-logo-sprite.svg"
   inkscape:export-filename="../Documents/system-logo-white.png"
   inkscape:export-xdpi="48.383999"
   inkscape:export-ydpi="48.383999"
   inkscape:version="1.4 (e7c3feb100, 2024-10-09)"
   xmlns:inkscape="http://www.inkscape.org/namespaces/inkscape"
   xmlns:sodipodi="http://sodipodi.sourceforge.net/DTD/sodipodi-0.dtd"
   xmlns:xlink="http://www.w3.org/1999/xlink"
   xmlns="http://www.w3.org/2000/svg"
   xmlns:svg="http://www.w3.org/2000/svg">
  <sodipodi:namedview
     id="namedview8"
     pagecolor="#ffffff"
     bordercolor="#000000"
     borderopacity="0.25"
     inkscape:showpageshadow="2"
     inkscape:pageopacity="0.0"
     inkscape:pagecheckerboard="0"
     inkscape:deskcolor="#d1d1d1"
     inkscape:zoom="0.69237538"
     inkscape:cx="129.26514"
     inkscape:cy="452.06691"
     inkscape:window-width="1920"
     inkscape:window-height="920"
     inkscape:window-x="0"
     inkscape:window-y="0"
     inkscape:window-maximized="1"
     inkscape:current-layer="svg8" />
  <defs
     id="defs8">
    <linearGradient
       id="paint0_linear_1016_105"
       x1="50"
       y1="50"
       x2="550"
       y2="550"
       gradientUnits="userSpaceOnUse"
       gradientTransform="translate(-50,-50)">
      <stop
         offset="0.0684898"
         stop-color="#0047AB"
         id="stop7" />
      <stop
         offset="0.741212"
         stop-color="#8A2BE2"
         id="stop8" />
    </linearGradient>
    <pattern
       inkscape:collect="always"
       xlink:href="#pattern19"
       preserveAspectRatio="xMidYMid"
       id="pattern20"
       patternTransform="matrix(0.24883635,0,0,0.26395392,123.32925,128.92426)" />
    <pattern
       patternUnits="userSpaceOnUse"
       width="27.277661"
       height="25.375454"
       patternTransform="translate(269.06628,279.99224)"
       preserveAspectRatio="xMidYMid"
       id="pattern19"
       style="fill:#000000"
       inkscape:label="pattern19">
      <g
         id="g2"
         transform="scale(5.4555322,8.4584848)">
        <rect
           id="black_stripe"
           width="5"
           height="3"
           y="0"
           x="0"
           fill="#000000" />
        <rect
           id="red_stripe"
           width="5"
           height="2"
           y="1"
           x="0"
           fill="#dd0000" />
        <rect
           id="gold_stripe"
           width="5"
           height="1"
           y="2"
           x="0"
           fill="#ffce00" />
      </g>
    </pattern>
  </defs>
  <path
     d="m 44.832186,197.93757 c -4.730887,0 -8.988692,0.50094 -12.773418,1.50275 -3.784698,0.94622 -7.012856,2.58811 -9.684394,4.9257 -2.671564,2.33762 -4.730913,5.48229 -6.177993,9.43396 -1.447106,3.89602 -2.170646,8.82175 -2.170646,14.77709 v 6.84588 L -4.4000001e-6,242.26884 v 12.2725 H 14.025735 v 74.21939 h 25.463349 v -74.21939 h 18.95141 v -19.11839 h -18.95141 v -5.84404 c 0,-3.33946 0.667917,-6.06667 2.003646,-8.18167 1.391458,-2.17062 3.756914,-3.25597 7.09637,-3.25597 2.56024,0 4.786535,0.25059 6.678911,0.75135 1.892349,0.50092 3.701212,1.05749 5.426615,1.66973 l 6.01102,-18.70095 c -2.448943,-1.00186 -5.426642,-1.89238 -8.933044,-2.67157 -3.506428,-0.83483 -7.819909,-1.25229 -12.940416,-1.25229 z m 308.482224,6.84588 c -9.40612,0 -17.55997,1.50278 -24.46151,4.50826 -6.84588,2.94987 -12.52298,7.15202 -17.03122,12.60645 -4.50827,5.45445 -7.87556,12.04988 -10.10185,19.78627 -2.17065,7.68075 -3.25597,16.25204 -3.25597,25.71384 0,9.46174 1.08532,18.08871 3.25597,25.88078 2.22629,7.73637 5.56575,14.35966 10.01836,19.86973 4.50824,5.5101 10.18534,9.76791 17.03123,12.77342 6.9015,3.00551 15.02755,4.50829 24.37802,4.50829 9.35045,0 17.44866,-1.50278 24.29454,-4.50829 6.90151,-3.00551 12.60644,-7.26332 17.11471,-12.77342 4.50824,-5.51007 7.84772,-12.13336 10.01837,-19.86973 2.22629,-7.7364 3.33945,-16.30771 3.33945,-25.71384 0,-9.51742 -1.11316,-18.11654 -3.33945,-25.79729 -2.17065,-7.73637 -5.51013,-14.33182 -10.01837,-19.78627 -4.45262,-5.51008 -10.10188,-9.74007 -16.94774,-12.68994 -6.84588,-3.00548 -14.94409,-4.50826 -24.29454,-4.50826 z m 112.2892,0.16697 c -5.8997,0 -11.24286,0.77919 -16.02939,2.33762 -4.73089,1.5584 -8.76607,3.84037 -12.10553,6.84588 -3.33945,2.94984 -5.92753,6.59543 -7.76423,10.93672 -1.78105,4.28562 -2.67157,9.15567 -2.67157,14.61012 0,5.56575 0.94622,10.35231 2.83854,14.35966 1.89235,3.9517 4.22997,7.3468 7.01286,10.18534 2.83851,2.78286 5.84405,5.1205 9.01653,7.01285 3.17245,1.89235 6.03886,3.50643 8.5991,4.84221 3.06115,1.61406 5.81621,3.14468 8.26515,4.59176 2.50459,1.4471 4.61956,2.94983 6.34496,4.50826 1.78103,1.50276 3.14465,3.14467 4.09084,4.9257 1.00183,1.72537 1.50275,3.72905 1.50275,6.01102 0,1.89235 -0.30616,3.64556 -0.91835,5.25964 -0.55657,1.5584 -1.47494,2.92202 -2.75505,4.09083 -1.22448,1.11314 -2.86637,2.00368 -4.9257,2.67157 -2.00367,0.61219 -4.4248,0.91835 -7.26331,0.91835 -2.78289,0 -5.59359,-0.2783 -8.43213,-0.83487 -2.78289,-0.55654 -5.59361,-1.30794 -8.43212,-2.25413 -2.78289,-0.94621 -5.53794,-2.00367 -8.26515,-3.17248 -2.72722,-1.22446 -5.42665,-2.47676 -8.09818,-3.75689 v 24.04408 c 4.67521,2.44892 9.74007,4.28564 15.19452,5.5101 5.51007,1.22446 11.21501,1.8367 17.11471,1.8367 6.73456,0 12.68993,-0.83483 17.86608,-2.50459 5.23181,-1.66973 9.62878,-4.03518 13.19085,-7.09634 3.61773,-3.11681 6.34497,-6.84589 8.18167,-11.18718 1.89235,-4.39694 2.83854,-9.32266 2.83854,-14.77709 0,-4.78653 -0.69571,-8.96088 -2.08716,-12.52296 -1.39143,-3.56213 -3.3673,-6.73461 -5.92754,-9.5175 -2.50459,-2.83854 -5.51012,-5.39878 -9.01653,-7.68075 -3.50642,-2.33761 -7.34682,-4.61956 -11.52112,-6.84585 -3.45078,-1.8367 -6.40064,-3.47862 -8.84955,-4.92573 -2.39327,-1.44708 -4.36913,-2.86634 -5.92754,-4.2578 -1.50275,-1.39143 -2.61591,-2.86638 -3.33945,-4.42478 -0.66795,-1.61405 -1.00187,-3.45078 -1.00187,-5.5101 0,-3.84038 1.141,-6.90153 3.42294,-9.18351 2.33762,-2.33759 5.67711,-3.50642 10.01837,-3.50642 2.00367,0 3.97954,0.16697 5.92753,0.50092 2.00368,0.27829 4.03519,0.72359 6.09451,1.33578 2.05932,0.61219 4.17435,1.36362 6.34497,2.25413 2.17064,0.89049 4.50826,1.92019 7.01288,3.089 l 8.34864,-20.12022 c -2.94986,-1.39143 -5.81624,-2.61592 -8.59913,-3.6734 -2.78286,-1.05749 -5.56575,-1.948 -8.34863,-2.67157 -2.72722,-0.72357 -5.51011,-1.28011 -8.34864,-1.66973 -2.78287,-0.38964 -5.64924,-0.5844 -8.5991,-0.5844 z m -112.2892,21.37252 c 4.89784,0 9.10002,0.94621 12.60645,2.83853 3.5064,1.89235 6.37278,4.61959 8.5991,8.18167 2.28194,3.56208 3.95167,7.9034 5.00918,13.02388 1.11313,5.06483 1.66973,10.79758 1.66973,17.19819 0,6.40062 -0.55657,12.16118 -1.66973,17.28169 -1.05751,5.06483 -2.72724,9.37831 -5.00918,12.94039 -2.22632,3.50642 -5.12054,6.20583 -8.68259,8.09817 -3.50643,1.89235 -7.73642,2.83854 -12.68993,2.83854 -4.84221,0 -9.01653,-0.94621 -12.52296,-2.83854 -3.50642,-1.89234 -6.42848,-4.59175 -8.76607,-8.09817 -2.28197,-3.56208 -3.97953,-7.87556 -5.09267,-12.94039 -1.11316,-5.12051 -1.66972,-10.88107 -1.66972,-17.28169 0,-6.40061 0.55654,-12.13336 1.66972,-17.19819 1.11314,-5.12048 2.8107,-9.4618 5.09267,-13.02388 2.33759,-3.56208 5.28746,-6.28932 8.84956,-8.18167 3.56205,-1.89234 7.76423,-2.83853 12.60644,-2.83853 z m -228.50224,7.3468 c -3.11683,0 -5.89972,0.38965 -8.34864,1.16881 -2.39329,0.72357 -4.56394,1.78102 -6.51196,3.17248 -1.89232,1.33578 -3.61773,2.9777 -5.17613,4.9257 -1.55843,1.94802 -3.00554,4.11867 -4.34129,6.51194 H 99.181851 L 95.424937,235.42295 H 76.139581 v 93.33778 h 25.463349 v -47.50375 c 0,-4.39694 0.52881,-8.09821 1.58627,-11.10369 1.11313,-3.06116 2.64372,-5.5101 4.59172,-7.3468 2.0037,-1.89235 4.36916,-3.25597 7.09637,-4.09083 2.78286,-0.83484 5.81621,-1.2523 9.10002,-1.2523 0.55654,0 1.25229,0.0272 2.08713,0.0839 0.83486,0 1.66976,0.0556 2.50459,0.16697 0.89049,0.0556 1.72541,0.13919 2.50462,0.25059 0.77919,0.11141 1.39146,0.22254 1.83667,0.33392 v -23.87711 c -0.33389,-0.11113 -0.83483,-0.19449 -1.50272,-0.25059 -0.61222,-0.11114 -1.30797,-0.19449 -2.08719,-0.25032 -0.72357,-0.11141 -1.50273,-0.16698 -2.33759,-0.16698 -0.77922,-0.0556 -1.50276,-0.0839 -2.17065,-0.0839 z m 63.11571,0 c -6.34496,0 -12.13336,1.02967 -17.36517,3.089 -5.17615,2.05932 -9.6288,5.14831 -13.35782,9.26698 -3.6734,4.063 -6.53978,9.1557 -8.59912,15.27801 -2.05933,6.12232 -3.08897,13.27434 -3.08897,21.45601 0,8.07031 1.11316,15.11103 3.33945,21.12205 2.28194,5.95535 5.45443,10.90888 9.51745,14.86058 4.06297,3.89602 8.90521,6.81804 14.52663,8.76607 5.6214,1.948 11.77158,2.92202 18.45049,2.92202 3.45076,0 6.62324,-0.13919 9.51745,-0.41743 2.89419,-0.22254 5.59359,-0.6123 8.09818,-1.16878 2.50457,-0.55657 4.87005,-1.22449 7.09634,-2.00368 2.28195,-0.83483 4.53608,-1.8367 6.7624,-3.00553 v -19.70279 c -2.44894,1.22449 -4.84224,2.30981 -7.17986,3.256 -2.33759,0.89046 -4.70304,1.64189 -7.09631,2.2541 -2.3933,0.61222 -4.87008,1.08533 -7.43032,1.41927 -2.50456,0.2783 -5.17613,0.41743 -8.01469,0.41743 -3.39508,0 -6.42845,-0.52878 -9.09999,-1.58624 -2.61592,-1.05748 -4.87005,-2.56027 -6.7624,-4.50826 -1.8367,-2.0037 -3.2838,-4.42484 -4.34129,-7.26337 -1.00186,-2.89419 -1.5584,-6.12232 -1.66975,-9.68442 h 56.93774 v -12.35599 c 0,-6.79021 -0.94622,-12.80125 -2.83854,-18.03306 -1.8367,-5.28745 -4.50829,-9.74007 -8.01469,-13.35782 -3.45078,-3.61773 -7.68078,-6.34497 -12.68993,-8.18167 -4.95354,-1.89235 -10.51931,-2.83853 -16.69728,-2.83853 z m 61.77993,1.75321 v 93.33778 h 25.46335 v -93.33778 z m -61.61296,16.36334 c 2.67157,0 5.00919,0.50091 7.01286,1.50275 2.00365,1.00184 3.6734,2.39327 5.00918,4.17432 1.33576,1.72538 2.3376,3.78473 3.00551,6.17799 0.66763,2.39327 1.02944,5.00919 1.08533,7.84772 h -32.47621 c 0.44527,-6.79021 2.14281,-11.77158 5.09267,-14.94406 3.00548,-3.17248 6.7624,-4.75872 11.27066,-4.75872 z"
     style="font-weight:bold;font-size:16.9333px;font-family:'Droid Sans';-inkscape-font-specification:'Droid Sans Bold';baseline-shift:baseline;display:inline;overflow:visible;vector-effect:none;fill:#000000;fill-opacity:1;stroke-width:10.0973;enable-background:accumulate;stop-color:#000000"
     id="path52" />
  <path
     sodipodi:type="star"
     style="fill:url(#pattern20);fill-opacity:1;stroke-width:0.264583"
     id="path2"
     inkscape:flatsided="false"
     sodipodi:sides="5"
     sodipodi:cx="79.101562"
     sodipodi:cy="78.890625"
     sodipodi:r1="3.5859375"
     sodipodi:r2="1.7929688"
     sodipodi:arg1="1.0471976"
     sodipodi:arg2="1.6755161"
     inkscape:rounded="0"
     inkscape:randomized="0"
     d="m 80.894531,81.996138 -1.980385,-1.322366 -2.212044,0.881724 0.645672,-2.292092 -1.522128,-1.831311 2.379432,-0.09422 1.271317,-2.013536 0.824898,2.233858 2.307846,0.586877 -1.869618,1.474824 z"
     inkscape:transform-center-x="-0.11582962"
     inkscape:transform-center-y="-0.23039019"
     transform="matrix(10.097251,0,0,10.097251,-533.6263,-590.99921)" />
</svg>
