<?xml version="1.0" encoding="UTF-8" standalone="no"?>
<svg
   width="90"
   height="22"
   viewBox="0 0 89.999998 22"
   fill="none"
   version="1.1"
   id="svg18"
   sodipodi:docname="fedora_whitelogo.svg"
   inkscape:version="1.4 (e7c3feb100, 2024-10-09)"
   xmlns:inkscape="http://www.inkscape.org/namespaces/inkscape"
   xmlns:sodipodi="http://sodipodi.sourceforge.net/DTD/sodipodi-0.dtd"
   xmlns:xlink="http://www.w3.org/1999/xlink"
   xmlns="http://www.w3.org/2000/svg"
   xmlns:svg="http://www.w3.org/2000/svg">
  <sodipodi:namedview
     id="namedview1"
     pagecolor="#ffffff"
     bordercolor="#000000"
     borderopacity="0.25"
     inkscape:showpageshadow="2"
     inkscape:pageopacity="0.0"
     inkscape:pagecheckerboard="0"
     inkscape:deskcolor="#d1d1d1"
     inkscape:zoom="6.6555556"
     inkscape:cx="45"
     inkscape:cy="10.96828"
     inkscape:window-width="1920"
     inkscape:window-height="920"
     inkscape:window-x="0"
     inkscape:window-y="0"
     inkscape:window-maximized="1"
     inkscape:current-layer="svg18" />
  <defs
     id="defs18">
    <linearGradient
       id="paint0_linear_1016_57"
       x1="100"
       y1="100"
       x2="508"
       y2="508"
       gradientUnits="userSpaceOnUse"
       gradientTransform="matrix(0.04240317,0,0,0.04240317,-4.2403167,-4.2403167)">
      <stop
         offset="0.0684898"
         stop-color="#0047AB"
         id="stop15" />
      <stop
         offset="0.741212"
         stop-color="#8A2BE2"
         id="stop16" />
    </linearGradient>
    <linearGradient
       id="paint1_linear_1016_57"
       x1="1459.63"
       y1="161.55"
       x2="1459.63"
       y2="218.53"
       gradientUnits="userSpaceOnUse"
       gradientTransform="matrix(0.04240317,0,0,0.04240317,-4.2403167,-4.2403167)">
      <stop
         stop-color="#59CAFD"
         id="stop17" />
      <stop
         offset="1"
         stop-color="#2B50EF"
         id="stop18" />
    </linearGradient>
    <pattern
       inkscape:collect="always"
       xlink:href="#pattern19"
       preserveAspectRatio="xMidYMid"
       id="pattern20"
       patternTransform="matrix(0.24883635,0,0,0.26395392,123.32925,128.92426)" />
    <pattern
       patternUnits="userSpaceOnUse"
       width="27.277661"
       height="25.375454"
       patternTransform="translate(269.06628,279.99224)"
       preserveAspectRatio="xMidYMid"
       id="pattern19"
       style="fill:#000000"
       inkscape:label="pattern19">
      <g
         id="g2"
         transform="scale(5.4555322,8.4584848)">
        <rect
           id="black_stripe"
           width="5"
           height="3"
           y="0"
           x="0"
           fill="#000000" />
        <rect
           id="red_stripe"
           width="5"
           height="2"
           y="1"
           x="0"
           fill="#dd0000" />
        <rect
           id="gold_stripe"
           width="5"
           height="1"
           y="2"
           x="0"
           fill="#ffce00" />
      </g>
    </pattern>
  </defs>
  <path
     d="m 16.940425,3.8797348 c -0.647015,0 -1.22933,0.068511 -1.746944,0.2055221 -0.517611,0.1294089 -0.959106,0.3539603 -1.324477,0.6736585 -0.365373,0.3197024 -0.647018,0.7497801 -0.844927,1.2902263 -0.197912,0.5328354 -0.296866,1.206498 -0.296866,2.0209743 v 0.93627 l -1.918217,0.9362715 v 1.6784365 h 1.918217 v 10.150542 h 3.48247 V 11.621094 h 2.591871 V 9.006386 H 16.209681 V 8.2071316 c 0,-0.4567179 0.09135,-0.8297021 0.274027,-1.118958 0.190301,-0.2968628 0.51381,-0.4452996 0.970528,-0.4452996 0.350148,0 0.654625,0.034272 0.913434,0.1027577 0.258806,0.068508 0.506193,0.1446265 0.742166,0.2283589 L 19.931927,4.4163735 C 19.597,4.2793551 19.189758,4.1575641 18.710208,4.0509989 18.230655,3.9368242 17.640726,3.8797307 16.940425,3.8797307 Z m 42.189269,0.9362701 c -1.286419,0 -2.401572,0.2055262 -3.345454,0.6165677 -0.93627,0.4034361 -1.712693,0.978139 -2.329259,1.7241088 -0.616569,0.7459725 -1.077093,1.64799 -1.381569,2.7060498 -0.296867,1.0504498 -0.4453,2.2226948 -0.4453,3.5167278 0,1.294026 0.148433,2.473885 0.4453,3.53956 0.304476,1.058057 0.761194,1.963885 1.370151,2.717464 0.616565,0.753583 1.392988,1.335899 2.32926,1.746944 0.943876,0.411046 2.055228,0.616572 3.334036,0.616572 1.278805,0 2.386348,-0.205526 3.322619,-0.616572 0.943878,-0.411045 1.724107,-0.993361 2.340676,-1.746944 0.616565,-0.753579 1.073286,-1.659407 1.370153,-2.717464 0.304476,-1.058061 0.456716,-2.230308 0.456716,-3.516728 0,-1.301641 -0.15224,-2.477691 -0.456716,-3.5281414 C 65.84344,8.8160926 65.386719,7.9140723 64.770154,7.1680998 64.161196,6.4145191 63.38858,5.8360087 62.452313,5.4325726 61.516043,5.0215311 60.408499,4.8160049 59.129694,4.8160049 Z m 15.357122,0.022835 c -0.806866,0 -1.537618,0.1065652 -2.192243,0.3197023 -0.647016,0.2131331 -1.198883,0.5252245 -1.655601,0.9362701 -0.456717,0.403432 -0.810673,0.9020175 -1.061868,1.4957498 -0.243583,0.5861186 -0.365374,1.2521662 -0.365374,1.9981388 0,0.7611951 0.129409,1.4158241 0.38821,1.9638851 0.258805,0.54045 0.578508,1.004778 0.959107,1.392988 0.388206,0.380595 0.799256,0.7003 1.233137,0.959106 0.433877,0.258805 0.825898,0.479553 1.176047,0.66224 0.418655,0.220745 0.795448,0.430079 1.130375,0.627987 0.342538,0.197912 0.63179,0.403431 0.867763,0.616568 0.24358,0.205524 0.430075,0.430078 0.559479,0.673659 0.137015,0.235968 0.205522,0.51 0.205522,0.822091 0,0.258805 -0.04187,0.498581 -0.125597,0.719329 -0.07612,0.213133 -0.201719,0.399628 -0.376792,0.559479 -0.167464,0.152237 -0.392016,0.274031 -0.673658,0.365374 -0.27403,0.08373 -0.605154,0.125598 -0.99336,0.125598 -0.380599,0 -0.765001,-0.03806 -1.153212,-0.114181 -0.380599,-0.07611 -0.765004,-0.178879 -1.15321,-0.308283 -0.380599,-0.129408 -0.757391,-0.27403 -1.130375,-0.433882 -0.372986,-0.167462 -0.742171,-0.338731 -1.10754,-0.513807 v 3.288365 c 0.639401,0.334924 1.332091,0.586121 2.078064,0.753584 0.753579,0.167462 1.533809,0.251194 2.340676,0.251194 0.921046,0 1.735526,-0.114175 2.443437,-0.342538 0.715523,-0.228359 1.316871,-0.551867 1.804034,-0.970524 0.494775,-0.426267 0.867763,-0.936271 1.118958,-1.530003 0.258805,-0.601344 0.38821,-1.275005 0.38821,-2.020975 0,-0.654625 -0.09515,-1.225526 -0.285448,-1.71269 -0.190298,-0.487171 -0.460526,-0.921052 -0.810675,-1.301652 -0.342537,-0.38821 -0.753586,-0.738358 -1.233136,-1.05045 -0.479553,-0.319701 -1.004781,-0.631789 -1.575675,-0.936266 -0.471943,-0.251194 -0.875377,-0.47575 -1.2103,-0.673662 -0.327313,-0.197909 -0.59754,-0.392013 -0.810674,-0.582314 -0.205523,-0.190298 -0.357763,-0.392018 -0.456717,-0.605151 -0.09135,-0.220744 -0.13702,-0.4719429 -0.13702,-0.7535838 0,-0.5252258 0.156048,-0.943881 0.468135,-1.2559738 0.319703,-0.3196982 0.776425,-0.4795521 1.370153,-0.4795521 0.27403,0 0.544258,0.022836 0.810673,0.068508 0.274031,0.03806 0.551868,0.098961 0.833509,0.1826866 0.281641,0.083726 0.570901,0.1864942 0.867764,0.3082839 0.296865,0.121787 0.616568,0.2626129 0.95911,0.4224641 L 79.122497,6.014881 C 78.719062,5.8245834 78.327045,5.6571173 77.946446,5.512492 77.56585,5.3678655 77.185251,5.2460757 76.804653,5.1471174 76.431668,5.048159 76.051069,4.9720444 75.66286,4.9187584 75.282263,4.8654697 74.890247,4.8388335 74.486812,4.8388335 Z M 59.129694,7.7618321 c 0.669848,0 1.244555,0.1294075 1.724109,0.3882088 0.479549,0.2588054 0.871567,0.6317937 1.176047,1.118958 0.312088,0.4871644 0.540447,1.0809011 0.685076,1.7811981 0.152236,0.692687 0.228359,1.476721 0.228359,2.352094 0,0.875374 -0.07612,1.663212 -0.228359,2.363513 -0.144629,0.692687 -0.372988,1.282616 -0.685076,1.76978 -0.30448,0.479552 -0.700305,0.848734 -1.187466,1.107538 -0.479553,0.258806 -1.058064,0.38821 -1.735525,0.38821 -0.662241,0 -1.233137,-0.129407 -1.712691,-0.38821 -0.479552,-0.258804 -0.879185,-0.627986 -1.198883,-1.107538 -0.312091,-0.487164 -0.544256,-1.077093 -0.696494,-1.76978 -0.15224,-0.700301 -0.228357,-1.488139 -0.228357,-2.363513 0,-0.875373 0.07611,-1.659407 0.228357,-2.352094 0.152238,-0.700297 0.384403,-1.2940337 0.696494,-1.7811981 0.319698,-0.4871643 0.723135,-0.8601526 1.210302,-1.118958 0.48716,-0.2588041 1.061867,-0.3882088 1.724107,-0.3882088 z M 27.878809,8.76661 c -0.42627,0 -0.806869,0.05329 -1.141793,0.1598511 -0.327316,0.098958 -0.624183,0.2435795 -0.890602,0.4338812 -0.258802,0.1826866 -0.494776,0.4072422 -0.707909,0.6736587 -0.213137,0.266419 -0.411049,0.563286 -0.593732,0.890599 H 24.373504 L 23.859693,9.006386 H 21.22215 v 12.76525 h 3.48247 v -6.496804 c 0,-0.601343 0.07232,-1.107544 0.216945,-1.518585 0.152236,-0.418657 0.361566,-0.753583 0.627982,-1.004778 0.274034,-0.258805 0.597544,-0.445299 0.970528,-0.559478 0.380595,-0.114176 0.795448,-0.17127 1.244555,-0.17127 0.07611,0 0.171269,0.0037 0.285445,0.01148 0.114178,0 0.228363,0.0076 0.342537,0.02283 0.121787,0.0076 0.235974,0.01904 0.342542,0.03427 0.106565,0.01524 0.190302,0.03044 0.251191,0.04567 V 8.8694415 c -0.04566,-0.015199 -0.114175,-0.026599 -0.205518,-0.034272 -0.08373,-0.0152 -0.178884,-0.026599 -0.285453,-0.034235 -0.09896,-0.015237 -0.205519,-0.022837 -0.319698,-0.022837 -0.106569,-0.0076 -0.205524,-0.011475 -0.296867,-0.011475 z m 8.631958,0 c -0.867762,0 -1.659407,0.1408218 -2.37493,0.4224641 -0.707911,0.2816408 -1.316874,0.7041035 -1.826869,1.2673889 -0.502389,0.555673 -0.894407,1.252171 -1.17605,2.089483 -0.281643,0.837313 -0.42246,1.815452 -0.42246,2.93441 0,1.103728 0.15224,2.066645 0.456716,2.888736 0.312087,0.814478 0.74597,1.491942 1.301645,2.032393 0.555668,0.532835 1.217912,0.932462 1.98672,1.198883 0.768805,0.266416 1.609929,0.399627 2.523363,0.399627 0.47194,0 0.905821,-0.01904 1.301645,-0.05709 0.395821,-0.03044 0.765002,-0.08374 1.10754,-0.159847 0.342535,-0.07612 0.666047,-0.167467 0.970524,-0.274032 0.312088,-0.114174 0.620372,-0.251194 0.924853,-0.411048 v -2.694633 c -0.334927,0.167466 -0.662244,0.315899 -0.981947,0.445304 -0.319698,0.121783 -0.643206,0.224551 -0.97052,0.30828 -0.327317,0.08373 -0.666051,0.148434 -1.0162,0.194105 -0.342534,0.03806 -0.707908,0.05709 -1.096121,0.05709 -0.464325,0 -0.879181,-0.07232 -1.244552,-0.216941 -0.357763,-0.144625 -0.666047,-0.350152 -0.924853,-0.616567 -0.251194,-0.274034 -0.449105,-0.605159 -0.593732,-0.993368 -0.137018,-0.395821 -0.213133,-0.837313 -0.228362,-1.32448 h 7.787035 v -1.689855 c 0,-0.928656 -0.129409,-1.75075 -0.38821,-2.466274 C 41.374807,11.377506 41.00943,10.768548 40.52988,10.27377 40.057938,9.7789947 39.479426,9.4060064 38.794354,9.1548119 38.116888,8.8960065 37.355691,8.7666032 36.510767,8.7666032 Z m 8.449272,0.239776 v 12.76525 h 3.48247 V 9.006386 Z m -8.426436,2.237916 c 0.365374,0 0.685077,0.06851 0.959107,0.205522 0.274027,0.137016 0.502389,0.327314 0.685075,0.570897 0.182684,0.23597 0.3197,0.517615 0.411046,0.844927 0.09131,0.327313 0.14079,0.685077 0.148434,1.073286 h -4.441577 c 0.0609,-0.928657 0.293059,-1.609929 0.696494,-2.04381 0.411042,-0.433881 0.924853,-0.650822 1.541421,-0.650822 z"
     style="font-weight:bold;font-size:16.9333px;font-family:'Droid Sans';-inkscape-font-specification:'Droid Sans Bold';baseline-shift:baseline;display:inline;overflow:visible;vector-effect:none;fill:#ffffff;fill-opacity:1;stroke-width:1.38095;enable-background:accumulate;stop-color:#000000"
     id="path52" />
  <path
     sodipodi:type="star"
     style="fill:url(#pattern20);fill-opacity:1;stroke-width:0.264583"
     id="path2"
     inkscape:flatsided="false"
     sodipodi:sides="5"
     sodipodi:cx="79.101562"
     sodipodi:cy="78.890625"
     sodipodi:r1="3.5859375"
     sodipodi:r2="1.7929688"
     sodipodi:arg1="1.0471976"
     sodipodi:arg2="1.6755161"
     inkscape:rounded="0"
     inkscape:randomized="0"
     d="m 80.894531,81.996138 -1.980385,-1.322366 -2.212044,0.881724 0.645672,-2.292092 -1.522128,-1.831311 2.379432,-0.09422 1.271317,-2.013536 0.824898,2.233858 2.307846,0.586877 -1.869618,1.474824 z"
     inkscape:transform-center-x="-0.11582962"
     inkscape:transform-center-y="-0.23039019"
     transform="matrix(1.3809406,0,0,1.3809406,-62.171883,-104.01843)" />
</svg>
