<?xml version="1.0" encoding="UTF-8" standalone="no"?>
<!-- Created with Inkscape (http://www.inkscape.org/) -->

<svg
   width="250"
   height="250"
   viewBox="0 0 66.145832 66.145832"
   version="1.1"
   id="svg1"
   xml:space="preserve"
   inkscape:version="1.4 (e7c3feb100, 2024-10-09)"
   sodipodi:docname="freios.svg"
   inkscape:export-filename="freios.png"
   inkscape:export-xdpi="96"
   inkscape:export-ydpi="96"
   xmlns:inkscape="http://www.inkscape.org/namespaces/inkscape"
   xmlns:sodipodi="http://sodipodi.sourceforge.net/DTD/sodipodi-0.dtd"
   xmlns="http://www.w3.org/2000/svg"
   xmlns:svg="http://www.w3.org/2000/svg"><sodipodi:namedview
     id="namedview1"
     pagecolor="#ffffff"
     bordercolor="#000000"
     borderopacity="0.25"
     inkscape:showpageshadow="2"
     inkscape:pageopacity="0.0"
     inkscape:pagecheckerboard="0"
     inkscape:deskcolor="#d1d1d1"
     inkscape:document-units="mm"
     inkscape:zoom="2.816"
     inkscape:cx="125.35511"
     inkscape:cy="124.82244"
     inkscape:window-width="1920"
     inkscape:window-height="937"
     inkscape:window-x="0"
     inkscape:window-y="0"
     inkscape:window-maximized="1"
     inkscape:current-layer="layer1"
     inkscape:export-bgcolor="#adadadff" /><defs
     id="defs1"><pattern
       patternUnits="userSpaceOnUse"
       width="27.277661"
       height="25.375454"
       patternTransform="translate(269.06628,279.99224)"
       preserveAspectRatio="xMidYMid"
       id="pattern19"
       style="fill:#000000"
       inkscape:label="pattern19"><g
         id="g2"
         transform="scale(5.4555322,8.4584848)"><rect
           id="black_stripe"
           width="5"
           height="3"
           y="0"
           x="0"
           fill="#000000" /><rect
           id="red_stripe"
           width="5"
           height="2"
           y="1"
           x="0"
           fill="#dd0000" /><rect
           id="gold_stripe"
           width="5"
           height="1"
           y="2"
           x="0"
           fill="#ffce00" /></g></pattern></defs><g
     inkscape:label="Ebene 1"
     inkscape:groupmode="layer"
     id="layer1"><g
       id="g3"
       transform="translate(6.6666651e-8,2.4128483)"><path
         d="m 12.753743,27.916816 c -0.468532,0 -0.890213,0.04961 -1.265039,0.148828 -0.374826,0.09371 -0.694531,0.256316 -0.959114,0.487826 -0.264583,0.23151 -0.468533,0.542947 -0.6118488,0.934309 -0.143315,0.38585 -0.214974,0.873678 -0.214974,1.463477 v 0.677995 l -1.389063,0.677995 v 1.215429 h 1.389063 v 7.350456 h 2.5218098 v -7.350456 h 1.876888 v -1.893424 h -1.876888 v -0.578776 c 0,-0.330729 0.06615,-0.600825 0.198437,-0.810287 0.137804,-0.214973 0.372071,-0.322461 0.7028,-0.322461 0.253558,0 0.474045,0.02481 0.661458,0.07441 0.187413,0.04961 0.366558,0.104732 0.537435,0.165365 l 0.595313,-1.852083 c -0.242534,-0.09922 -0.537436,-0.187414 -0.884701,-0.264584 -0.347265,-0.08268 -0.774458,-0.124023 -1.281576,-0.124023 z m 30.551107,0.677995 c -0.931552,0 -1.739085,0.148829 -2.422591,0.446484 -0.677993,0.292144 -1.240235,0.708313 -1.686719,1.248503 -0.446483,0.54019 -0.779969,1.193382 -1.000455,1.95957 -0.214974,0.760675 -0.322461,1.60955 -0.322461,2.546615 0,0.937064 0.107487,1.791451 0.322461,2.563151 0.220486,0.766187 0.551216,1.422136 0.992187,1.967838 0.446483,0.545702 1.008726,0.967383 1.686719,1.265039 0.683505,0.297656 1.488283,0.446485 2.414323,0.446485 0.92604,0 1.728061,-0.148829 2.406054,-0.446485 0.683506,-0.297656 1.248504,-0.719337 1.694987,-1.265039 0.446484,-0.545702 0.777215,-1.201651 0.992188,-1.967838 0.220486,-0.766188 0.330729,-1.615063 0.330729,-2.546615 0,-0.942576 -0.110243,-1.794207 -0.330729,-2.554883 -0.214973,-0.766187 -0.545704,-1.41938 -0.992188,-1.95957 -0.440971,-0.545702 -1.000457,-0.964627 -1.67845,-1.256771 C 45.032911,28.74364 44.23089,28.594811 43.30485,28.594811 Z m 11.120768,0.01654 c -0.584287,0 -1.113456,0.07717 -1.5875,0.231511 -0.468532,0.15434 -0.868164,0.380338 -1.198893,0.677994 -0.330728,0.292144 -0.587044,0.653191 -0.768945,1.083138 -0.176389,0.424435 -0.264583,0.90675 -0.264583,1.44694 0,0.551214 0.09371,1.025262 0.281119,1.422136 0.187413,0.391363 0.418924,0.727605 0.694532,1.008724 0.281118,0.275607 0.578776,0.507118 0.892968,0.694531 0.314192,0.187413 0.59807,0.347266 0.851628,0.479557 0.303168,0.159852 0.57602,0.311438 0.818555,0.454753 0.248046,0.143316 0.457508,0.292144 0.628385,0.446484 0.176389,0.148828 0.311437,0.311438 0.405143,0.487826 0.09922,0.170877 0.148828,0.369314 0.148828,0.595312 0,0.187413 -0.03032,0.361047 -0.09095,0.520899 -0.05512,0.15434 -0.146072,0.289388 -0.272852,0.405143 -0.121267,0.110241 -0.283876,0.198437 -0.487825,0.264583 -0.198437,0.06063 -0.438217,0.09095 -0.719336,0.09095 -0.275607,0 -0.553972,-0.02756 -0.835091,-0.08268 -0.275608,-0.05512 -0.553973,-0.129537 -0.835091,-0.223243 -0.275608,-0.09371 -0.54846,-0.198438 -0.818555,-0.314192 -0.270095,-0.121268 -0.537436,-0.245291 -0.802018,-0.372071 v 2.38125 c 0.46302,0.242534 0.964627,0.424436 1.504817,0.545704 0.545702,0.121266 1.110701,0.181901 1.694987,0.181901 0.66697,0 1.256772,-0.08268 1.769401,-0.248047 0.518142,-0.165365 0.953604,-0.399632 1.306381,-0.7028 0.358289,-0.30868 0.628385,-0.677995 0.810286,-1.107943 0.187413,-0.435459 0.28112,-0.923287 0.28112,-1.463476 0,-0.474045 -0.0689,-0.887458 -0.206706,-1.240234 C 57.48762,35.923218 57.291938,35.609025 57.038379,35.333417 56.790332,35.052298 56.492675,34.798738 56.14541,34.57274 55.798145,34.34123 55.417805,34.115232 55.004395,33.894746 54.662642,33.712845 54.370497,33.550235 54.127962,33.40692 53.89094,33.263604 53.695258,33.123044 53.540918,32.98524 53.39209,32.847437 53.281846,32.701364 53.210189,32.547024 c -0.06615,-0.159852 -0.09922,-0.341754 -0.09922,-0.545703 0,-0.380338 0.112999,-0.683507 0.338997,-0.909505 0.23151,-0.23151 0.562241,-0.347266 0.992188,-0.347266 0.198437,0 0.39412,0.01654 0.587044,0.04961 0.198438,0.02756 0.399632,0.07166 0.603581,0.132291 0.203949,0.06063 0.413412,0.135048 0.628385,0.223242 0.214974,0.08819 0.446485,0.19017 0.694532,0.305925 l 0.826823,-1.992643 c -0.292144,-0.137804 -0.576021,-0.259072 -0.851628,-0.363802 -0.275607,-0.104731 -0.551216,-0.192926 -0.826823,-0.264584 -0.270095,-0.07166 -0.545704,-0.126778 -0.826823,-0.165364 -0.275607,-0.03859 -0.559484,-0.05788 -0.851628,-0.05788 z M 43.30485,30.728018 c 0.485068,0 0.901238,0.09371 1.248503,0.28112 0.347265,0.187412 0.631141,0.457509 0.851627,0.810286 0.225998,0.352777 0.391363,0.782727 0.496094,1.289844 0.110243,0.501604 0.165365,1.069358 0.165365,1.703255 0,0.633896 -0.05512,1.204406 -0.165365,1.711523 -0.104731,0.501605 -0.270096,0.928799 -0.496094,1.281576 -0.220486,0.347265 -0.507119,0.614605 -0.859895,0.802018 -0.347266,0.187413 -0.766191,0.28112 -1.256771,0.28112 -0.479556,0 -0.892969,-0.09371 -1.240235,-0.28112 -0.347264,-0.187413 -0.636654,-0.454753 -0.868164,-0.802018 -0.225998,-0.352777 -0.394119,-0.779971 -0.504362,-1.281576 -0.110242,-0.507117 -0.165364,-1.077627 -0.165364,-1.711523 0,-0.633897 0.05512,-1.201651 0.165364,-1.703255 0.110243,-0.507117 0.278364,-0.937067 0.504362,-1.289844 0.23151,-0.352777 0.523655,-0.622874 0.876433,-0.810286 0.352776,-0.187413 0.768946,-0.28112 1.248502,-0.28112 z m -22.630143,0.727604 c -0.30868,0 -0.584289,0.03859 -0.826823,0.115755 -0.237023,0.07166 -0.451997,0.176389 -0.644922,0.314193 -0.187412,0.132291 -0.35829,0.294901 -0.51263,0.487825 -0.15434,0.192926 -0.297657,0.4079 -0.429948,0.644922 H 18.136361 L 17.76429,31.629255 h -1.909961 v 9.24388 h 2.52181 v -4.704622 c 0,-0.43546 0.05237,-0.80202 0.157097,-1.099675 0.110242,-0.303168 0.261828,-0.545703 0.454752,-0.727604 0.198438,-0.187413 0.432705,-0.322461 0.7028,-0.405143 0.275607,-0.08268 0.57602,-0.124024 0.901237,-0.124024 0.05512,0 0.124023,0.0027 0.206705,0.0083 0.08268,0 0.165365,0.0055 0.248047,0.01654 0.08819,0.0055 0.170877,0.01378 0.248047,0.02481 0.07717,0.01102 0.137808,0.02205 0.181901,0.03307 v -2.364714 c -0.03307,-0.011 -0.08268,-0.01927 -0.148828,-0.02481 -0.06063,-0.01101 -0.129536,-0.01927 -0.206706,-0.0248 -0.07166,-0.01103 -0.148827,-0.01654 -0.23151,-0.01654 -0.07717,-0.0055 -0.148827,-0.0083 -0.214974,-0.0083 z m 6.250781,0 c -0.628384,0 -1.20165,0.101976 -1.719791,0.305924 -0.51263,0.20395 -0.953604,0.509875 -1.322917,0.917774 -0.363801,0.402387 -0.647678,0.90675 -0.851628,1.513086 -0.203949,0.606335 -0.305924,1.314649 -0.305924,2.124935 0,0.79926 0.110244,1.49655 0.330729,2.091862 0.225998,0.589798 0.540191,1.080382 0.942578,1.471744 0.402386,0.38585 0.881945,0.675239 1.438672,0.868165 0.556726,0.192924 1.165821,0.289388 1.827279,0.289388 0.341752,0 0.655946,-0.01378 0.942578,-0.04134 0.286631,-0.02205 0.553971,-0.06064 0.802018,-0.115755 0.248046,-0.05512 0.482314,-0.121267 0.7028,-0.198437 0.225997,-0.08268 0.44924,-0.181901 0.669726,-0.297657 v -1.951302 c -0.242534,0.121268 -0.479558,0.228755 -0.711068,0.322461 -0.23151,0.08819 -0.465777,0.162609 -0.702799,0.223242 -0.237023,0.06063 -0.482315,0.107487 -0.735873,0.14056 -0.248046,0.02756 -0.51263,0.04134 -0.79375,0.04134 -0.33624,0 -0.636654,-0.05237 -0.901236,-0.157097 -0.259071,-0.10473 -0.482314,-0.253559 -0.669727,-0.446484 -0.181901,-0.198441 -0.325217,-0.438221 -0.429948,-0.71934 -0.09922,-0.286631 -0.154338,-0.606337 -0.165365,-0.959115 h 5.638933 v -1.223698 c 0,-0.672481 -0.09371,-1.267796 -0.28112,-1.785937 -0.181901,-0.523654 -0.446485,-0.964628 -0.79375,-1.322917 -0.341753,-0.358289 -0.760678,-0.628386 -1.256771,-0.810286 -0.490581,-0.187413 -1.041798,-0.28112 -1.653646,-0.28112 z m 6.11849,0.173633 v 9.24388 h 2.52181 v -9.24388 z m -6.101953,1.620573 c 0.264583,0 0.496094,0.04961 0.694531,0.148828 0.198437,0.09922 0.363802,0.237023 0.496094,0.413411 0.13229,0.170877 0.231509,0.374827 0.297656,0.611849 0.06612,0.237022 0.101954,0.496094 0.107487,0.777214 h -3.216341 c 0.0441,-0.672482 0.212218,-1.165821 0.504362,-1.480013 0.297655,-0.314192 0.669727,-0.471289 1.116211,-0.471289 z"
         style="font-weight:bold;font-size:16.9333px;font-family:'Droid Sans';-inkscape-font-specification:'Droid Sans Bold';baseline-shift:baseline;display:inline;overflow:visible;vector-effect:none;enable-background:accumulate;stop-color:#000000"
         id="path52" /><g
         style="fill:none;stroke:currentColor;stroke-width:2;stroke-linecap:round;stroke-linejoin:round"
         id="g1"
         transform="matrix(0.45575926,0,0,0.45575926,33.638979,19.878804)"><path
           d="M 20.24,12.24 A 6.0033366,6.0033366 0 0 0 11.75,3.75 L 5,10.5 V 19 h 8.5 z"
           id="path1" /><line
           x1="16"
           y1="8"
           x2="2"
           y2="22"
           id="line1" /><line
           x1="17.5"
           y1="15"
           x2="9"
           y2="15"
           id="line2" /></g></g></g></svg>
